<?xml version="1.0" standalone="no"?>
<!DOCTYPE svg PUBLIC "-//W3C//DTD SVG 20010904//EN"
 "http://www.w3.org/TR/2001/REC-SVG-20010904/DTD/svg10.dtd">
<svg version="1.0" xmlns="http://www.w3.org/2000/svg"
 width="60.000000pt" height="60.000000pt" viewBox="0 0 512.000000 512.000000"
 preserveAspectRatio="xMidYMid meet">

<g transform="translate(0.000000,450.000000) scale(0.100000,-0.100000)"
fill="#64ffda" stroke="none">
<path d="M1303 3050 c-114 -23 -233 -114 -281 -218 -24 -51 -27 -69 -27 -167
0 -130 16 -175 91 -255 l47 -50 -89 -1 c-59 0 -82 -3 -69 -9 11 -5 583 -9
1270 -9 688 0 1259 4 1270 9 14 6 -5 9 -57 9 l-78 1 0 266 c0 249 1 268 20
294 24 33 86 60 140 60 33 0 40 3 40 20 0 20 -7 20 -325 20 -318 0 -325 0
-325 -20 0 -17 7 -20 43 -20 23 0 61 -9 84 -19 73 -34 74 -35 74 -332 l1 -264
-356 -3 -356 -2 0 252 c0 221 2 257 18 288 21 44 89 80 149 80 36 0 43 3 43
20 0 20 -7 20 -325 20 -318 0 -325 0 -325 -20 0 -17 7 -20 42 -20 54 0 119
-32 141 -69 15 -26 17 -61 17 -290 l0 -261 -301 0 -301 0 -110 66 c-122 74
-229 167 -260 227 -16 32 -19 54 -16 107 5 86 34 134 109 175 47 25 64 29 134
28 119 0 182 -28 271 -117 72 -72 133 -176 149 -253 6 -28 11 -33 36 -33 35 0
35 -13 6 280 l-22 215 -26 3 c-19 2 -28 -3 -37 -22 -6 -14 -22 -32 -35 -41
-22 -14 -30 -13 -113 11 -178 54 -260 63 -361 44z"/>
<path d="M980 2150 c0 -6 88 -10 244 -10 l245 0 89 -60 c104 -69 141 -117 168
-216 15 -56 16 -75 6 -121 -24 -113 -123 -200 -241 -210 -203 -19 -395 116
-492 346 -23 54 -32 67 -53 69 -14 2 -26 0 -26 -5 0 -13 49 -362 61 -435 10
-61 13 -68 34 -68 17 0 26 8 34 30 17 49 46 53 158 23 213 -56 279 -63 398
-38 146 31 267 121 328 245 57 115 50 272 -18 384 l-34 56 150 0 149 0 0 -261
c0 -224 -2 -265 -16 -289 -23 -38 -66 -61 -129 -67 -50 -5 -55 -8 -55 -29 l0
-24 325 0 325 0 0 25 c0 23 -4 25 -43 25 -60 0 -128 36 -149 80 -16 31 -18 67
-18 288 l0 252 355 0 c277 0 355 -3 355 -12 1 -7 1 -127 1 -267 0 -286 -1
-288 -74 -322 -23 -10 -61 -19 -84 -19 -39 0 -43 -2 -43 -25 l0 -25 325 0 325
0 0 25 c0 23 -4 25 -42 25 -24 0 -62 9 -85 19 -71 33 -73 43 -73 341 l0 260
70 0 c40 0 70 4 70 10 0 7 -430 10 -1270 10 -840 0 -1270 -3 -1270 -10z"/>
</g>
</svg>
